<svg width="8" height="11" viewBox="0 0 8 11" fill="none" xmlns="http://www.w3.org/2000/svg">
<path d="M1.20708 4.0858C0.930935 4.36194 0.48322 4.36194 0.207077 4.0858C-0.0690647 3.80966 -0.0690647 3.36194 0.207077 3.0858L3.00005 0.292833C3.39055 -0.097592 4.0236 -0.0975911 4.41411 0.292833L7.20708 3.0858C7.48322 3.36194 7.48322 3.80966 7.20708 4.0858C6.93093 4.36194 6.48322 4.36194 6.20708 4.0858L3.70708 1.5858L1.20708 4.0858ZM1.20708 10.0858C0.930935 10.3619 0.48322 10.3619 0.207078 10.0858C-0.0690647 9.80966 -0.0690647 9.36194 0.207078 9.0858L3.00005 6.29283C3.39055 5.90241 4.0236 5.90241 4.41411 6.29283L7.20708 9.0858C7.48322 9.36194 7.48322 9.80966 7.20708 10.0858C6.93094 10.3619 6.48322 10.3619 6.20708 10.0858L3.70708 7.5858L1.20708 10.0858Z" fill="#41F6D7"/>
</svg>
