<svg width="98" height="52" viewBox="0 0 98 52" fill="none" xmlns="http://www.w3.org/2000/svg">
<path fill-rule="evenodd" clip-rule="evenodd" d="M36.0944 0.25C35.5422 0.25 35.0944 0.697715 35.0944 1.25V5.52495C35.0944 6.07724 35.5422 6.52495 36.0944 6.52495H72.4214C82.5484 6.52495 90.5019 14.3216 90.5019 24.4144C90.5019 24.7 90.7333 24.9315 91.0189 24.9315H96.2811C96.5667 24.9315 96.7981 24.7 96.7981 24.4144C96.7981 10.9252 85.9561 0.25 72.4214 0.25H36.0944Z" fill="#6B7B84" stroke="#80949F" stroke-width="0.5"/>
<path fill-rule="evenodd" clip-rule="evenodd" d="M6.63075 25.3698C6.63075 25.1277 6.43452 24.9315 6.19246 24.9315H0.68829C0.446229 24.9315 0.25 25.1277 0.25 25.3698C0.25 39.0192 10.4732 50.2886 23.6927 51.0262L66.0343 51.0639C66.5869 51.0644 67.0352 50.6166 67.0352 50.0639V45.4843C67.0352 44.932 66.5875 44.4843 66.0352 44.4843H25.1505C14.9142 44.456 6.63075 35.9406 6.63075 25.3698Z" fill="#6B7B84" stroke="#80949F" stroke-width="0.5"/>
<path fill-rule="evenodd" clip-rule="evenodd" d="M27.6655 39.45C30.4043 39.45 32.6856 38.9179 34.9389 37.8231L35.0944 37.6775V29.8431L34.2513 30.9225C32.6288 32.6954 30.4499 33.6713 27.9848 33.6713C23.3932 33.6713 18.7815 30.7034 18.7815 25.0314C18.7815 20.745 21.9621 16.1896 27.8233 16.1896C28.9928 16.1896 31.837 16.4661 34.2472 19.0256L35.0944 20.0693V12.2703L34.9457 12.1229C32.6498 10.9723 30.3083 10.413 27.6377 10.413C23.0707 10.413 19.5061 11.6153 16.6678 14.0865C14.8675 15.6353 11.8648 19.1061 11.8648 24.9499C11.8648 29.2706 13.4033 32.6451 16.6909 35.572C19.7492 38.2538 23.1403 39.45 27.6655 39.45Z" fill="#6B7B84"/>
<path d="M27.6655 39.45C30.4043 39.45 32.6856 38.9179 34.9389 37.8231L35.0944 37.6775V29.8431L34.2513 30.9225C32.6288 32.6954 30.4499 33.6713 27.9848 33.6713C23.3932 33.6713 18.7815 30.7034 18.7815 25.0314C18.7815 20.745 21.9621 16.1896 27.8233 16.1896C28.9928 16.1896 31.837 16.4661 34.2472 19.0256L35.0944 20.0693V12.2703L34.9457 12.1229C32.6498 10.9723 30.3083 10.413 27.6377 10.413C23.0707 10.413 19.5061 11.6153 16.6678 14.0865C14.8675 15.6353 11.8648 19.1061 11.8648 24.9499C11.8648 29.2706 13.4033 32.6451 16.6909 35.572C19.7492 38.2538 23.1403 39.45 27.6655 39.45" stroke="#80949F" stroke-width="0.5"/>
<path fill-rule="evenodd" clip-rule="evenodd" d="M47.4352 16.9463H48.7995C50.051 16.9463 51.4773 17.0146 52.5569 17.7504C53.084 18.127 53.9685 18.9987 53.9685 20.582C53.9685 21.7521 53.4514 22.8012 52.5974 23.4558C51.5024 24.2507 50.2008 24.2051 49.155 24.2051H47.4352V16.9463ZM50.5009 29.4754C53.7323 29.4754 56.2617 28.5434 58.0182 26.7874C60.1789 24.6311 60.5018 21.6649 60.5018 20.1011C60.5018 18.4279 60.1052 15.1642 57.4451 12.8011C55.2646 10.8904 52.9381 10.413 49.6563 10.413H40.9018V39.45H47.5604V29.4754H50.5009Z" fill="#6B7B84"/>
<path d="M47.4352 16.9463V16.6963H47.1852V16.9463H47.4352ZM52.5569 17.7504L52.7022 17.547L52.6977 17.5439L52.5569 17.7504ZM52.5974 23.4558L52.7443 23.6582L52.7495 23.6542L52.5974 23.4558ZM47.4352 24.2051H47.1852V24.4551H47.4352V24.2051ZM58.0182 26.7874L57.8416 26.6105L57.8414 26.6106L58.0182 26.7874ZM57.4451 12.8011L57.6112 12.6142L57.6099 12.6131L57.4451 12.8011ZM40.9018 10.413V10.163H40.6518V10.413H40.9018ZM40.9018 39.45H40.6518V39.7H40.9018V39.45ZM47.5604 39.45V39.7H47.8104V39.45H47.5604ZM47.5604 29.4754V29.2254H47.3104V29.4754H47.5604ZM47.4352 16.9463V17.1963H48.7995V16.9463V16.6963H47.4352V16.9463ZM48.7995 16.9463V17.1963C50.0567 17.1963 51.4079 17.2698 52.4161 17.957L52.5569 17.7504L52.6977 17.5439C51.5468 16.7593 50.0452 16.6963 48.7995 16.6963V16.9463ZM52.5569 17.7504L52.4116 17.9539C52.8992 18.3022 53.7185 19.107 53.7185 20.582H53.9685H54.2185C54.2185 18.8904 53.2689 17.9518 52.7022 17.547L52.5569 17.7504ZM53.9685 20.582H53.7185C53.7185 21.678 53.2348 22.6523 52.4453 23.2574L52.5974 23.4558L52.7495 23.6542C53.6681 22.9501 54.2185 21.8261 54.2185 20.582H53.9685ZM52.5974 23.4558L52.4505 23.2535C51.4332 23.992 50.2212 23.9551 49.155 23.9551V24.2051V24.4551C50.1805 24.4551 51.5716 24.5093 52.7443 23.6582L52.5974 23.4558ZM49.155 24.2051V23.9551H47.4352V24.2051V24.4551H49.155V24.2051ZM47.4352 24.2051H47.6852V16.9463H47.4352H47.1852V24.2051H47.4352ZM50.5009 29.4754V29.7254C53.7808 29.7254 56.3803 28.7783 58.1949 26.9642L58.0182 26.7874L57.8414 26.6106C56.143 28.3085 53.6838 29.2254 50.5009 29.2254V29.4754ZM58.0182 26.7874L58.1948 26.9644C60.4269 24.7369 60.7518 21.6863 60.7518 20.1011H60.5018H60.2518C60.2518 21.6435 59.931 24.5254 57.8416 26.6105L58.0182 26.7874ZM60.5018 20.1011H60.7518C60.7518 18.3998 60.3502 15.0474 57.6111 12.6142L57.4451 12.8011L57.2791 12.988C59.8602 15.2809 60.2518 18.4559 60.2518 20.1011H60.5018ZM57.4451 12.8011L57.6099 12.6131C55.3639 10.645 52.9657 10.163 49.6563 10.163V10.413V10.663C52.9106 10.663 55.1654 11.1358 57.2803 12.9891L57.4451 12.8011ZM49.6563 10.413V10.163H40.9018V10.413V10.663H49.6563V10.413ZM40.9018 10.413H40.6518V39.45H40.9018H41.1518V10.413H40.9018ZM40.9018 39.45V39.7H47.5604V39.45V39.2H40.9018V39.45ZM47.5604 39.45H47.8104V29.4754H47.5604H47.3104V39.45H47.5604ZM47.5604 29.4754V29.7254H50.5009V29.4754V29.2254H47.5604V29.4754Z" fill="#80949F"/>
<path fill-rule="evenodd" clip-rule="evenodd" d="M80.4769 24.1263C79.0292 22.8436 77.0085 22.1001 74.7149 21.3289C73.0808 20.7602 72.1804 20.447 71.5801 19.8997C71.1063 19.4975 70.8951 19.0609 70.8951 18.4838C70.8951 17.2198 71.754 15.8689 74.1653 15.8689C75.804 15.8689 77.176 16.5696 78.2436 17.9506L78.6674 18.499L82.1836 14.0232L81.863 13.7021C79.7125 11.55 76.8787 10.413 73.6678 10.413C67.1895 10.413 64.2896 14.6275 64.2896 18.8044C64.2896 21.0458 65.089 22.8536 66.6605 24.1751C68.0676 25.381 69.7834 26.0567 71.4293 26.6083L71.6153 26.6699C73.0769 27.153 74.5884 27.653 75.4912 28.461C76.1193 29.0381 76.3993 29.6652 76.3993 30.4943C76.3993 32.3944 74.9029 33.6713 72.6759 33.6713C70.9155 33.6713 68.5974 32.8084 67.371 30.3872L67.0502 29.7529L62.6796 33.7987L62.9374 34.1632C64.3318 36.1376 67.4784 39.45 72.8832 39.45C78.843 39.45 83.0056 35.6184 83.0056 30.1327C83.0056 26.995 81.629 25.1328 80.4769 24.1263Z" fill="#6B7B84"/>
<path d="M80.4769 24.1263C79.0292 22.8436 77.0085 22.1001 74.7149 21.3289C73.0808 20.7602 72.1804 20.447 71.5801 19.8997C71.1063 19.4975 70.8951 19.0609 70.8951 18.4838C70.8951 17.2198 71.754 15.8689 74.1653 15.8689C75.804 15.8689 77.176 16.5696 78.2436 17.9506L78.6674 18.499L82.1836 14.0232L81.863 13.7021C79.7125 11.55 76.8787 10.413 73.6678 10.413C67.1895 10.413 64.2896 14.6275 64.2896 18.8044C64.2896 21.0458 65.089 22.8536 66.6605 24.1751C68.0676 25.381 69.7834 26.0567 71.4293 26.6083L71.6153 26.6699C73.0769 27.153 74.5884 27.653 75.4912 28.461C76.1193 29.0381 76.3993 29.6652 76.3993 30.4943C76.3993 32.3944 74.9029 33.6713 72.6759 33.6713C70.9155 33.6713 68.5974 32.8084 67.371 30.3872L67.0502 29.7529L62.6796 33.7987L62.9374 34.1632C64.3318 36.1376 67.4784 39.45 72.8832 39.45C78.843 39.45 83.0056 35.6184 83.0056 30.1327C83.0056 26.995 81.629 25.1328 80.4769 24.1263" stroke="#80949F" stroke-width="0.5"/>
</svg>
