<svg width="24" height="24" viewBox="0 0 24 24" fill="none" xmlns="http://www.w3.org/2000/svg">
<path d="M14.5001 13.5001C14.7762 13.2239 15.2239 13.2239 15.5001 13.5001C15.7762 13.7762 15.7762 14.2239 15.5001 14.5001L12.7071 17.293C12.3166 17.6835 11.6835 17.6835 11.293 17.293L8.50008 14.5001C8.22393 14.2239 8.22393 13.7762 8.50008 13.5001C8.77622 13.2239 9.22393 13.2239 9.50008 13.5001L12.0001 16.0001L14.5001 13.5001ZM14.5001 7.50008C14.7762 7.22393 15.2239 7.22393 15.5001 7.50008C15.7762 7.77622 15.7762 8.22393 15.5001 8.50008L12.7071 11.293C12.3166 11.6835 11.6835 11.6835 11.293 11.293L8.50008 8.50008C8.22393 8.22393 8.22393 7.77622 8.50008 7.50008C8.77622 7.22393 9.22393 7.22393 9.50008 7.50008L12.0001 10.0001L14.5001 7.50008Z" fill="#41F6D7"/>
</svg>
