<?xml version="1.0" encoding="UTF-8"?> <svg xmlns="http://www.w3.org/2000/svg" width="126" height="36" viewBox="0 0 126 36" fill="none"><path d="M111.113 24.6407L117.031 11.363H120.066L126.003 24.6407H122.779L117.923 12.9184H119.137L114.262 24.6407H111.113ZM114.072 21.7955L114.888 19.4624H121.716L122.551 21.7955H114.072Z" fill="#39C0DE"></path><path d="M98.9531 24.6407V11.363H104.985C106.427 11.363 107.697 11.6412 108.798 12.1976C109.898 12.7414 110.758 13.5064 111.377 14.4928C111.997 15.4791 112.307 16.6488 112.307 18.0019C112.307 19.3423 111.997 20.512 111.377 21.511C110.758 22.4973 109.898 23.2687 108.798 23.8251C107.697 24.3688 106.427 24.6407 104.985 24.6407H98.9531ZM98.9531 19.9366L98.9531 22.118H104.833C105.718 22.118 106.483 21.9536 107.128 21.6248C107.786 21.2834 108.292 20.8028 108.646 20.1832C109.013 19.5636 109.196 18.8365 109.196 18.0019C109.196 17.1546 109.013 16.4275 108.646 15.8205C108.292 15.2009 107.786 14.7267 107.128 14.3979C106.483 14.0565 105.718 13.8858 104.833 13.8858H102.026L102.026 18.0019L98.9531 19.9366Z" fill="#39C0DE"></path><path d="M93.9062 24.6407V13.3416L96.9791 11.363V24.6407H93.9062Z" fill="#39C0DE"></path><path d="M86.8512 24.8683C85.789 24.8683 84.7711 24.7292 83.7974 24.451C82.8237 24.1602 82.0396 23.7871 81.4453 23.3319L82.4886 21.0178C83.0576 21.4224 83.7278 21.7575 84.4992 22.0231C85.2832 22.276 86.0735 22.4024 86.8702 22.4024C87.4772 22.4024 87.964 22.3455 88.3307 22.2317C88.7101 22.1053 88.9883 21.9346 89.1653 21.7196C89.3424 21.5046 89.4309 21.258 89.4309 20.9798C89.4309 20.6258 89.2918 20.3476 89.0136 20.1452C88.7354 19.9303 88.3687 19.7595 87.9134 19.6331C87.4582 19.494 86.9524 19.3675 86.396 19.2537C85.8522 19.1273 85.3022 18.9755 84.7458 18.7985C84.202 18.6215 83.7025 18.3938 83.2473 18.1156C82.792 17.8374 82.419 17.4707 82.1282 17.0155C81.85 16.5603 81.7109 15.9786 81.7109 15.2704C81.7109 14.5117 81.9132 13.8225 82.3178 13.2029C82.7351 12.5706 83.3548 12.0711 84.1767 11.7044C85.0113 11.3251 86.0546 11.1354 87.3065 11.1354C88.1411 11.1354 88.963 11.2365 89.7723 11.4389C90.5816 11.6285 91.2961 11.9194 91.9157 12.3114L90.9673 14.6445C90.3477 14.2904 89.7281 14.0312 89.1084 13.8668C88.4888 13.6897 87.8818 13.6012 87.2875 13.6012C86.6932 13.6012 86.2063 13.6708 85.8269 13.8099C85.4476 13.949 85.1757 14.1323 85.0113 14.36C84.8469 14.5749 84.7647 14.8278 84.7647 15.1187C84.7647 15.4601 84.9038 15.7383 85.182 15.9533C85.4602 16.1556 85.8269 16.32 86.2822 16.4465C86.7374 16.5729 87.2369 16.6994 87.7807 16.8258C88.3371 16.9523 88.8871 17.0977 89.4309 17.2621C89.9873 17.4265 90.4931 17.6478 90.9483 17.926C91.4036 18.2042 91.7703 18.5709 92.0485 19.0261C92.3393 19.4814 92.4848 20.0567 92.4848 20.7522C92.4848 21.4983 92.2761 22.1811 91.8588 22.8008C91.4415 23.4204 90.8156 23.9199 89.981 24.2993C89.159 24.6786 88.1158 24.8683 86.8512 24.8683Z" fill="#39C0DE"></path><path d="M68.4219 24.6407V11.363H74.909C76.5782 11.363 77.8301 11.6792 78.6647 12.3114C79.5119 12.9437 79.9355 13.7783 79.9355 14.8152C79.9355 15.5107 79.7648 16.1177 79.4234 16.6362C79.082 17.142 78.6141 17.534 78.0197 17.8122C77.4254 18.0904 76.7426 18.2295 75.9712 18.2295L76.3316 17.4518C77.1662 17.4518 77.9059 17.5909 78.5509 17.8691C79.1958 18.1347 79.6953 18.533 80.0493 19.0641C80.4161 19.5952 80.5994 20.2464 80.5994 21.0178C80.5994 22.1559 80.1505 23.0474 79.2527 23.6923C78.3548 24.3246 77.0334 24.6407 75.2883 24.6407H68.4219ZM71.4757 22.3266H75.0607C75.8574 22.3266 76.458 22.2002 76.8627 21.9473C77.28 21.6817 77.4886 21.2644 77.4886 20.6954C77.4886 20.139 77.28 19.728 76.8627 19.4624C76.458 19.1842 75.8574 19.0451 75.0607 19.0451H71.2481V16.8069H74.5296C75.2757 16.8069 75.8447 16.6804 76.2367 16.4275C76.6414 16.162 76.8437 15.7636 76.8437 15.2325C76.8437 14.7141 76.6414 14.3284 76.2367 14.0755C75.8447 13.8099 75.2757 13.6771 74.5296 13.6771H71.4757V22.3266Z" fill="#39C0DE"></path><path d="M52.5078 24.6407L58.4259 11.363H61.4608L67.3978 24.6407H64.1732L59.3174 12.9184H60.5313L55.6565 24.6407H52.5078ZM55.4668 21.7955L56.2825 19.4624H63.111L63.9456 21.7955H59.7062H55.4668Z" fill="#39C0DE"></path><path d="M48.5539 11.363H51.6268V24.6407H48.5539V11.363ZM42.5221 24.6407H39.4492V11.363H42.5221V24.6407ZM48.7815 19.1969H42.2944V16.5982H48.7815V19.1969Z" fill="#39C0DE"></path><path d="M25.227 16.1465L18.8711 19.7777L18.8718 27.0331L25.227 23.4026V16.1465Z" fill="#39C0DE"></path><path d="M0 9.00145L15.7517 0L18.9557 1.82668L3.20295 10.8241V25.181L6.28972 26.9378V22.4353L9.49321 24.2712V32.4273L0 27.0039V9.00145Z" fill="#39C0DE"></path><path fill-rule="evenodd" clip-rule="evenodd" d="M6.28906 18.9127L9.49228 20.7436V14.42L14.1817 11.7409L17.2695 13.5051L12.5805 16.1844V34.1888L15.7497 36.0037L31.5047 27.0015V12.557L28.3044 14.3882V25.1719L15.7822 32.328V18.0163L31.5358 9.01129L22.0382 3.58838L6.28906 12.5908V18.9127ZM17.3853 9.91242L20.467 11.6765L25.1322 9.01246L22.0433 7.24894L17.3853 9.91242Z" fill="#39C0DE"></path></svg> 